<?xml version="1.0" encoding="UTF-8"?>
<svg version="1.1" xmlns="http://www.w3.org/2000/svg" width="200" height="168">
<path d="M0 0 C0.5775 0.2475 1.155 0.495 1.75 0.75 C0.945625 1.20375 0.14125 1.6575 -0.6875 2.125 C-3.33856572 3.49725665 -3.33856572 3.49725665 -4.25 5.75 C-4.32181821 8.46760108 -4.34299506 11.15859388 -4.3125 13.875 C-4.30798828 14.62910156 -4.30347656 15.38320313 -4.29882812 16.16015625 C-4.28703499 18.02347127 -4.26909942 19.88674555 -4.25 21.75 C-3.26 20.265 -3.26 20.265 -2.25 18.75 C0.72 19.74 3.69 20.73 6.75 21.75 C6.1515275 25.42142219 5.12478095 28.36862251 3.46484375 31.69140625 C3.01689453 32.60470703 2.56894531 33.51800781 2.10742188 34.45898438 C1.15847371 36.36601775 0.20794452 38.2722652 -0.74414062 40.17773438 C-1.19080078 41.08974609 -1.63746094 42.00175781 -2.09765625 42.94140625 C-2.51023682 43.76842041 -2.92281738 44.59543457 -3.34790039 45.44750977 C-4.49319593 47.95857517 -4.49319593 47.95857517 -4.25 51.75 C-3.80269531 50.71101563 -3.35539062 49.67203125 -2.89453125 48.6015625 C2.59601808 35.91618515 2.59601808 35.91618515 5.5625 30.1875 C7.01120815 27.38918101 8.10642754 24.80554417 8.875 21.75 C9.75 18.75 9.75 18.75 12.75 16.75 C14.75537109 16.49121094 14.75537109 16.49121094 17.0234375 16.484375 C17.8484375 16.48179688 18.6734375 16.47921875 19.5234375 16.4765625 C20.38195312 16.48429687 21.24046875 16.49203125 22.125 16.5 C22.97578125 16.49226563 23.8265625 16.48453125 24.703125 16.4765625 C25.94449219 16.48042969 25.94449219 16.48042969 27.2109375 16.484375 C27.96165527 16.48663086 28.71237305 16.48888672 29.48583984 16.49121094 C32.15625623 16.79643429 34.27884673 17.71917771 36.75 18.75 C36.77333829 34.49189671 36.79098376 50.23378877 36.80181217 65.97569847 C36.80697315 73.28458611 36.81401208 80.593463 36.82543945 87.90234375 C36.83539234 94.27117438 36.84185487 100.63999724 36.84408849 107.00883543 C36.84539457 110.38251115 36.84847394 113.75616462 36.85573006 117.12983322 C36.86294496 120.89174491 36.86399075 124.65360989 36.86352539 128.41552734 C36.86712067 129.53977615 36.87071594 130.66402496 36.87442017 131.82234192 C36.8730455 132.84320389 36.87167084 133.86406586 36.87025452 134.91586304 C36.87163721 136.25154107 36.87163721 136.25154107 36.87304783 137.6142025 C36.75 139.75 36.75 139.75 35.75 141.75 C31.60418113 141.77886751 27.45838784 141.79675327 23.3125 141.8125 C22.12849609 141.82087891 20.94449219 141.82925781 19.72460938 141.83789062 C18.59990234 141.84111328 17.47519531 141.84433594 16.31640625 141.84765625 C14.75321655 141.85551147 14.75321655 141.85551147 13.15844727 141.86352539 C10.75 141.75 10.75 141.75 9.75 140.75 C9.62649342 138.84839888 9.57206557 136.9422761 9.54467773 135.03686523 C9.5147599 133.20507973 9.5147599 133.20507973 9.48423767 131.33628845 C9.46725209 129.99372487 9.45037333 128.65115993 9.43359375 127.30859375 C9.41303053 125.94238139 9.39203423 124.57617549 9.37062073 123.2099762 C9.31533465 119.60805476 9.26595437 116.00607529 9.21777344 112.40405273 C9.16760597 108.73090428 9.11189515 105.05784045 9.05664062 101.38476562 C8.94897918 94.17324868 8.84755213 86.96166153 8.75 79.75 C8.23050781 80.86117187 7.71101563 81.97234375 7.17578125 83.1171875 C6.47142089 84.61982294 5.76698998 86.12242532 5.0625 87.625 C4.72283203 88.35203125 4.38316406 89.0790625 4.03320312 89.828125 C3.68837891 90.56289062 3.34355469 91.29765625 2.98828125 92.0546875 C2.63267624 92.82293854 2.27707123 93.59118958 1.91069031 94.38272095 C0.75 96.75 0.75 96.75 -0.61808777 99.08676147 C-4.60938616 106.09415672 -4.91347466 112.01119333 -4.73828125 119.9765625 C-4.73120651 121.20539154 -4.72413177 122.43422058 -4.71684265 123.70028687 C-4.68904357 127.59249941 -4.62632717 131.48322846 -4.5625 135.375 C-4.53739864 138.02732285 -4.51458872 140.67966844 -4.49414062 143.33203125 C-4.43926412 149.80518641 -4.35578196 156.27748718 -4.25 162.75 C-4.91 162.75 -5.57 162.75 -6.25 162.75 C-6.58 146.58 -6.91 130.41 -7.25 113.75 C-10.55 120.68 -13.85 127.61 -17.25 134.75 C-17.91 136.07 -18.57 137.39 -19.25 138.75 C-22.59373475 138.19271087 -25.28312999 137.39826111 -28.25 135.75 C-27.69134324 131.59997839 -26.7542545 128.19977096 -24.9921875 124.40625 C-24.53448975 123.41334961 -24.07679199 122.42044922 -23.60522461 121.39746094 C-23.11675049 120.35879883 -22.62827637 119.32013672 -22.125 118.25 C-21.62943604 117.18297852 -21.13387207 116.11595703 -20.62329102 115.01660156 C-16.62739096 106.45201032 -12.59047841 97.87972276 -8.06640625 89.578125 C-7.04611648 87.62714682 -7.04611648 87.62714682 -7.25 84.75 C-7.485979 85.27730713 -7.72195801 85.80461426 -7.96508789 86.34790039 C-12.6772996 96.86959433 -17.42293097 107.37049183 -22.33789062 117.79931641 C-23.36704401 120.00031629 -24.37912388 122.20880343 -25.390625 124.41796875 C-26.11455408 125.98699266 -26.83851189 127.55600332 -27.5625 129.125 C-27.90031494 129.86967529 -28.23812988 130.61435059 -28.58618164 131.3815918 C-31.02418632 136.63709316 -31.02418632 136.63709316 -33.25 137.75 C-35.24960012 137.789992 -37.25047242 137.79346799 -39.25 137.75 C-45.55923633 126.30660001 -51.22609068 114.59445663 -56.81347656 102.78466797 C-59.17818995 97.78919085 -61.55601108 92.79999811 -63.9375 87.8125 C-64.39874268 86.84634766 -64.85998535 85.88019531 -65.33520508 84.88476562 C-68.22255645 78.8526974 -71.17456049 72.85829208 -74.18994141 66.8894043 C-77.64404356 60.02413531 -80.93815297 53.08260162 -84.22753906 46.13720703 C-86.26934422 41.83704162 -88.32247135 37.55493658 -90.54296875 33.34375 C-90.87804443 32.7038916 -91.21312012 32.0640332 -91.55834961 31.40478516 C-92.42808488 29.76092461 -93.31485845 28.12610901 -94.203125 26.4921875 C-95.40209355 23.35160571 -95.35913135 21.89253883 -94.25 18.75 C-91.30433961 15.80433961 -88.09427138 16.34807902 -84.13671875 16.2734375 C-82.92687065 16.24922226 -82.92687065 16.24922226 -81.69258118 16.22451782 C-79.98369951 16.19683819 -78.27470731 16.17539281 -76.56567383 16.15966797 C-73.95635336 16.12524869 -71.35211489 16.03752432 -68.74414062 15.94921875 C-56.6369507 15.72024255 -56.6369507 15.72024255 -53.06396484 18.37304688 C-51.7219042 20.47992701 -50.95792826 22.3615356 -50.25 24.75 C-49.51523438 26.19632813 -49.51523438 26.19632813 -48.765625 27.671875 C-48.34796875 28.60515625 -47.9303125 29.5384375 -47.5 30.5 C-47.00113281 31.60472656 -46.50226563 32.70945313 -45.98828125 33.84765625 C-45.40844635 35.14825576 -44.82905855 36.44905465 -44.25 37.75 C-43.12529194 40.26602504 -41.99912202 42.78138531 -40.87158203 45.29614258 C-40.08573836 47.04914107 -39.30154288 48.80287942 -38.51904297 50.55737305 C-36.1698989 55.79943523 -33.71262965 60.94335229 -30.9296875 65.97265625 C-30.25 67.75 -30.25 67.75 -31.25 70.75 C-34.125 72.5 -34.125 72.5 -37.25 73.75 C-40.25 72.75 -40.25 72.75 -41.39746094 70.94677734 C-41.75614258 70.1677002 -42.11482422 69.38862305 -42.484375 68.5859375 C-42.89026855 67.71807617 -43.29616211 66.85021484 -43.71435547 65.95605469 C-44.13861816 65.02180664 -44.56288086 64.08755859 -45 63.125 C-45.44102051 62.1752832 -45.88204102 61.22556641 -46.33642578 60.24707031 C-47.22951126 58.3219533 -48.11837336 56.39487119 -49.00292969 54.46582031 C-50.09691491 52.08338265 -51.20346544 49.70771855 -52.3203125 47.3359375 C-55.37742679 40.83996895 -58.3334751 34.31218102 -61.25 27.75 C-67.85 27.75 -74.45 27.75 -81.25 27.75 C-80.198125 29.85375 -79.14625 31.9575 -78.0625 34.125 C-77.49716553 35.25675659 -77.49716553 35.25675659 -76.92041016 36.41137695 C-74.69031103 40.87514092 -72.45339551 45.33539978 -70.2109375 49.79296875 C-64.90999539 60.34277297 -59.6483338 70.90703129 -54.5625 81.5625 C-54.11922363 82.49118896 -53.67594727 83.41987793 -53.21923828 84.37670898 C-50.9547669 89.13409621 -48.71072352 93.90043638 -46.484375 98.67578125 C-45.81088013 100.11183716 -45.81088013 100.11183716 -45.1237793 101.5769043 C-44.275596 103.3868147 -43.43292804 105.19932448 -42.59692383 107.01489258 C-40.54715264 111.38164577 -38.50167674 115.12056583 -35.25 118.75 C-34.75371094 117.61304687 -34.25742188 116.47609375 -33.74609375 115.3046875 C-30.64043098 108.2305922 -27.53648216 101.18462706 -24 94.3125 C-20.68881066 87.7904604 -17.64327292 81.15339717 -14.64733887 74.48165894 C-13.82334765 72.64912489 -12.99228524 70.8197757 -12.16113281 68.99047852 C-11.65549805 67.85666748 -11.14986328 66.72285645 -10.62890625 65.5546875 C-10.1707251 64.53358887 -9.71254395 63.51249023 -9.24047852 62.46044922 C-8.02117982 59.60479166 -8.02117982 59.60479166 -8.25 55.75 C-8.64155273 56.62398437 -8.64155273 56.62398437 -9.04101562 57.515625 C-13.69887944 67.89181199 -18.38087892 78.23492995 -23.54736328 88.36938477 C-25.95887361 93.10987046 -28.15707705 97.91660384 -30.2421875 102.80859375 C-31.25 104.75 -31.25 104.75 -33.25 105.75 C-36.125 106.1875 -36.125 106.1875 -39.25 105.75 C-42.70619077 101.33681617 -44.81878933 96.50771676 -47 91.375 C-50.48917219 83.34892018 -54.27216629 75.52203477 -58.24560547 67.7265625 C-60.28731734 63.70864823 -62.29432029 59.67318409 -64.30053711 55.63745117 C-65.95180807 52.32134391 -67.62478188 49.01987477 -69.34375 45.73828125 C-69.6749585 45.09842285 -70.00616699 44.45856445 -70.34741211 43.79931641 C-71.25744785 42.04370483 -72.17724371 40.2931624 -73.09765625 38.54296875 C-74.25 35.75 -74.25 35.75 -73.25 32.75 C-70.20460856 30.68348438 -67.85034581 30.67250911 -64.25 30.75 C-60.14207517 38.86752167 -56.09467956 47.00402309 -52.25 55.25 C-48.70129474 62.8571209 -44.98669111 70.37210485 -41.20117188 77.86376953 C-39.54168492 81.15463099 -37.89679255 84.45277155 -36.25 87.75 C-31.22795176 78.7185236 -26.72881033 69.55858443 -22.54614258 60.10888672 C-19.01526967 52.15162413 -15.42401055 44.06375931 -10.95532227 36.58251953 C-7.01838817 29.62691934 -6.59882982 23.77131328 -6.6875 15.875 C-6.70409356 13.66933287 -6.70352423 11.46345201 -6.68359375 9.2578125 C-6.69990845 7.81365967 -6.69990845 7.81365967 -6.71655273 6.34033203 C-6.03836872 2.57500897 -4.09521811 -0.45502423 0 0 Z M18.75 26.75 C16.33314288 30.97949995 15.40166856 33.87335991 15.75 38.75 C18.67965912 35.82034088 19.69133569 33.069947 19.875 28.9375 C19.83375 28.215625 19.7925 27.49375 19.75 26.75 C19.42 26.75 19.09 26.75 18.75 26.75 Z M28.75 34.75 C26.38745825 39.40512805 26.47899776 43.57988332 26.52294922 48.67114258 C26.52251114 50.00360016 26.52251114 50.00360016 26.52206421 51.36297607 C26.52345418 54.29026154 26.53899977 57.21729041 26.5546875 60.14453125 C26.55841881 62.17762615 26.56126523 64.21072285 26.56326294 66.24382019 C26.57089007 71.58841946 26.59053073 76.9329096 26.6126709 82.27746582 C26.6331491 87.73379032 26.64226888 93.1901325 26.65234375 98.64648438 C26.67377744 109.34770413 26.70790235 120.04884298 26.75 130.75 C24.44 130.75 22.13 130.75 19.75 130.75 C19.75 106.33 19.75 81.91 19.75 56.75 C17.60807685 57.59280797 17.60807685 57.59280797 16.63671875 59.66015625 C15.33778704 64.18638964 15.50316658 68.5009016 15.5625 73.1875 C15.56894531 74.26757324 15.57539063 75.34764648 15.58203125 76.46044922 C15.74970607 95.89238855 16.28195127 115.32348801 16.75 134.75 C21.04 134.75 25.33 134.75 29.75 134.75 C29.75 101.75 29.75 68.75 29.75 34.75 C29.42 34.75 29.09 34.75 28.75 34.75 Z M7.75 50.75 C7.31429687 51.68199219 6.87859375 52.61398438 6.4296875 53.57421875 C6.14424072 54.18475098 5.85879395 54.7952832 5.56469727 55.42431641 C4.9336574 56.7762402 4.30395577 58.12878938 3.67553711 59.48193359 C2.1238226 62.82162063 0.56064791 66.1535043 -1.05078125 69.46484375 C-1.59089844 70.59019531 -2.13101563 71.71554688 -2.6875 72.875 C-3.18121094 73.88820313 -3.67492187 74.90140625 -4.18359375 75.9453125 C-5.26210023 78.78182405 -5.47541984 80.74806753 -5.25 83.75 C-2.18294863 79.14942294 0.05626544 74.12456478 2.45507812 69.15283203 C3.37309069 67.25394935 4.2996761 65.35940742 5.2265625 63.46484375 C5.81042895 62.25807029 6.39377996 61.05104728 6.9765625 59.84375 C7.50846191 58.74740234 8.04036133 57.65105469 8.58837891 56.52148438 C9.94327641 53.78971257 9.94327641 53.78971257 9.75 50.75 C9.09 50.75 8.43 50.75 7.75 50.75 Z " fill="#1879B7" transform="translate(117.25,5.25)"/>
<path d="M0 0 C0.5775 0.2475 1.155 0.495 1.75 0.75 C0.945625 1.20375 0.14125 1.6575 -0.6875 2.125 C-3.33856572 3.49725665 -3.33856572 3.49725665 -4.25 5.75 C-4.32181821 8.46760108 -4.34299506 11.15859388 -4.3125 13.875 C-4.30798828 14.62910156 -4.30347656 15.38320313 -4.29882812 16.16015625 C-4.28703499 18.02347127 -4.26909942 19.88674555 -4.25 21.75 C-3.26 20.265 -3.26 20.265 -2.25 18.75 C0.72 19.74 3.69 20.73 6.75 21.75 C6.16377477 25.3529753 5.19165861 28.18242076 3.5 31.41015625 C-3.13668697 43.73514419 -3.13668697 43.73514419 -5.08984375 57.375 C-5.29740396 60.45296605 -6.53076883 62.23624163 -8.25 64.75 C-8.58 64.09 -8.91 63.43 -9.25 62.75 C-8.58333333 61.41666667 -7.91666667 60.08333333 -7.25 58.75 C-7.25 57.43 -7.25 56.11 -7.25 54.75 C-12.1634821 64.43963085 -16.94470045 74.19252697 -21.67474365 83.97280884 C-22.3062158 85.27840154 -22.93825165 86.58372176 -23.57086182 87.88876343 C-24.47355426 89.75178527 -25.37385217 91.61594496 -26.2734375 93.48046875 C-26.79856934 94.56739014 -27.32370117 95.65431152 -27.86474609 96.77416992 C-29.2704432 99.69433977 -29.2704432 99.69433977 -30.31103516 102.5793457 C-31.25 104.75 -31.25 104.75 -33.25 105.75 C-36.125 106.1875 -36.125 106.1875 -39.25 105.75 C-42.70619077 101.33681617 -44.81878933 96.50771676 -47 91.375 C-50.48917219 83.34892018 -54.27216629 75.52203477 -58.24560547 67.7265625 C-60.28731734 63.70864823 -62.29432029 59.67318409 -64.30053711 55.63745117 C-65.95180807 52.32134391 -67.62478188 49.01987477 -69.34375 45.73828125 C-69.6749585 45.09842285 -70.00616699 44.45856445 -70.34741211 43.79931641 C-71.25744785 42.04370483 -72.17724371 40.2931624 -73.09765625 38.54296875 C-74.25 35.75 -74.25 35.75 -73.25 32.75 C-70.20460856 30.68348438 -67.85034581 30.67250911 -64.25 30.75 C-60.14207517 38.86752167 -56.09467956 47.00402309 -52.25 55.25 C-48.70129474 62.8571209 -44.98669111 70.37210485 -41.20117188 77.86376953 C-39.54168492 81.15463099 -37.89679255 84.45277155 -36.25 87.75 C-31.22795176 78.7185236 -26.72881033 69.55858443 -22.54614258 60.10888672 C-19.01526967 52.15162413 -15.42401055 44.06375931 -10.95532227 36.58251953 C-7.01838817 29.62691934 -6.59882982 23.77131328 -6.6875 15.875 C-6.70409356 13.66933287 -6.70352423 11.46345201 -6.68359375 9.2578125 C-6.69990845 7.81365967 -6.69990845 7.81365967 -6.71655273 6.34033203 C-6.03836872 2.57500897 -4.09521811 -0.45502423 0 0 Z " fill="#1D7CB9" transform="translate(117.25,5.25)"/>
<path d="M0 0 C0.99 0 1.98 0 3 0 C3.02333829 15.74189671 3.04098376 31.48378877 3.05181217 47.22569847 C3.05697315 54.53458611 3.06401208 61.843463 3.07543945 69.15234375 C3.08539234 75.52117438 3.09185487 81.88999724 3.09408849 88.25883543 C3.09539457 91.63251115 3.09847394 95.00616462 3.10573006 98.37983322 C3.11294496 102.14174491 3.11399075 105.90360989 3.11352539 109.66552734 C3.11712067 110.78977615 3.12071594 111.91402496 3.12442017 113.07234192 C3.1230455 114.09320389 3.12167084 115.11406586 3.12025452 116.16586304 C3.12117631 117.05631506 3.1220981 117.94676708 3.12304783 118.8642025 C3 121 3 121 2 123 C-2.14581887 123.02886751 -6.29161216 123.04675327 -10.4375 123.0625 C-12.21350586 123.07506836 -12.21350586 123.07506836 -14.02539062 123.08789062 C-15.15009766 123.09111328 -16.27480469 123.09433594 -17.43359375 123.09765625 C-18.99678345 123.10551147 -18.99678345 123.10551147 -20.59155273 123.11352539 C-23 123 -23 123 -24 122 C-24.12052358 119.93684327 -24.17026475 117.86952892 -24.19287109 115.80297852 C-24.20104858 115.15565262 -24.20922607 114.50832672 -24.21765137 113.84138489 C-24.2425679 111.68723478 -24.25904701 109.53315138 -24.2734375 107.37890625 C-24.27876118 106.64209059 -24.28408485 105.90527493 -24.28956985 105.14613152 C-24.3163427 101.23781244 -24.33569458 97.3295256 -24.35009766 93.42114258 C-24.36665533 89.40297866 -24.4113441 85.38564949 -24.4624691 81.36779881 C-24.49632607 78.26459439 -24.5076957 75.16158234 -24.51332474 72.05821037 C-24.51999852 70.57876224 -24.5351186 69.09932499 -24.55921555 67.62005806 C-24.69639581 58.68058352 -24.04043436 51.64704999 -19 44 C-18.67 44 -18.34 44 -18 44 C-16.67090725 67.98729623 -16.89997832 91.98556398 -17 116 C-12.71 116 -8.42 116 -4 116 C-4.00666183 114.72515244 -4.01332367 113.45030487 -4.02018738 112.13682556 C-4.08103239 100.11594235 -4.12598903 88.09509043 -4.15543652 76.0740881 C-4.17108475 69.89413466 -4.19230797 63.71430566 -4.22631836 57.53442383 C-4.25894135 51.56923259 -4.27685936 45.60416097 -4.28463173 39.63888741 C-4.29016991 37.36433594 -4.30098462 35.08979093 -4.31719017 32.81529045 C-4.33900309 29.62663559 -4.34196525 26.43847346 -4.34057617 23.24975586 C-4.351362 22.31179672 -4.36214783 21.37383759 -4.3732605 20.40745544 C-4.34678647 14.78216064 -3.49387227 11.0383347 -1 6 C-0.60235737 4.01178687 -0.24544834 2.01267638 0 0 Z " fill="#F96207" transform="translate(151,24)"/>
<path d="M0 0 C0.33 0 0.66 0 1 0 C1 30.03 1 60.06 1 91 C-1.31 91 -3.62 91 -6 91 C-6.13963084 80.9071075 -6.24593885 70.81444851 -6.31087303 60.72078323 C-6.34205418 56.03274425 -6.3842817 51.34537087 -6.45263672 46.65771484 C-6.51830578 42.12537947 -6.55380518 37.59368023 -6.56926346 33.06090546 C-6.58026527 31.3402481 -6.60174763 29.61962165 -6.63438034 27.89923859 C-6.83234128 17.02031962 -6.11512417 9.35448021 0 0 Z " fill="#F0640F" transform="translate(143,45)"/>
<path d="M0 0 C0.33 0 0.66 0 1 0 C1.76258253 7.96475086 0.07063514 13.16714816 -4 20 C-4.33 20 -4.66 20 -5 20 C-5.64668107 12.11049093 -3.64154337 6.95794893 0 0 Z " fill="#EB6514" transform="translate(132,38)"/>
<path d="M0 0 C1.26328125 0.03609375 2.5265625 0.0721875 3.828125 0.109375 C5.27445313 0.17898437 5.27445313 0.17898437 6.75 0.25 C6.75 0.58 6.75 0.91 6.75 1.25 C5.41195312 1.25386719 5.41195312 1.25386719 4.046875 1.2578125 C-2.37442677 1.16455857 -2.37442677 1.16455857 -8.00390625 3.65234375 C-9.22342716 5.4535193 -9.22342716 5.4535193 -10.25 8.25 C-11 6.5 -11 6.5 -11.25 4.25 C-8.03200296 -0.21579181 -5.29427211 -0.19608415 0 0 Z " fill="#827F80" transform="translate(137.25,21.75)"/>
<path d="M0 0 C0.33 0 0.66 0 1 0 C1 5.94 1 11.88 1 18 C0.67 18 0.34 18 0 18 C-0.33 14.37 -0.66 10.74 -1 7 C-1.99 7.495 -1.99 7.495 -3 8 C-1.125 2.25 -1.125 2.25 0 0 Z " fill="#E6671A" transform="translate(132,68)"/>
<path d="M0 0 C0.66 0 1.32 0 2 0 C2 0.99 2 1.98 2 3 C1.34 3 0.68 3 0 3 C0 2.01 0 1.02 0 0 Z " fill="#6D6E73" transform="translate(160,136)"/>
</svg>
